<svg width="240" height="200" viewBox="0 0 240 200" fill="none" xmlns="http://www.w3.org/2000/svg">
<path fill-rule="evenodd" clip-rule="evenodd" d="M16.7001 16.1H141.2C145.4 16.1 149.1 17.8 151.9 20.5C154.6 23.2 156.3 27 156.3 31.2V63.8H153.2V31.2C153.2 27.9 151.9 24.9 149.7 22.8C147.5 20.6 144.5 19.3 141.3 19.3H16.7001C13.4001 19.3 10.4001 20.6 8.3001 22.8C6.1001 25 4.8001 28 4.8001 31.2V108.3H112.6C113.5 108.3 114.2 109 114.2 109.9C114.2 110.8 113.5 111.5 112.6 111.5H4.7001V113.8C4.7001 117.1 6.0001 120.1 8.2001 122.2C10.4001 124.4 13.4001 125.7 16.6001 125.7H66.2001H107.8C107.8 126.7 107.9 127.8 108.1 128.8H92.9001V132.9C92.9001 133.8 92.2001 134.5 91.3001 134.5C90.4001 134.5 89.7001 133.8 89.7001 132.9V128.8H67.9001V136.6C67.9001 137.5 67.2001 138.2 66.3001 138.2C65.4001 138.2 64.7001 137.5 64.7001 136.6V128.8H16.7001C12.5001 128.8 8.8001 127.1 6.0001 124.4C3.3001 121.7 1.6001 117.9 1.6001 113.7V109.8V31.2C1.6001 27 3.3001 23.3 6.0001 20.5C8.8001 17.8 12.5001 16.1 16.7001 16.1ZM124.9 165.4H128.1C128.7 165.4 129.2 164.9 129.2 164.2V160.4H136.1C136.7 160.4 137.2 159.9 137.2 159.2V153.4C137.2 152.8 136.7 152.2 136.1 152.2H132.9V143.8H136.1C136.7 143.8 137.2 143.3 137.2 142.6V136.8C137.2 136.2 136.7 135.6 136.1 135.6H80.3001C78.7001 135.6 77.3001 135.9 75.9001 136.5C74.5001 137.1 73.2001 138 72.1001 139.2C71.0001 140.3 70.2001 141.7 69.6001 143.2C69.0001 144.7 68.7001 146.2 68.7001 147.9C68.7001 149.6 69.0001 151.1 69.6001 152.6C70.2001 154.1 71.1001 155.5 72.1001 156.6C72.2001 156.8 72.4001 156.9 72.6001 157.1H72.3001C70.7001 157.1 69.3001 157.4 67.9001 158C66.5001 158.6 65.2001 159.5 64.1001 160.7C63.0001 161.8 62.2001 163.2 61.6001 164.7C61.0001 166.2 60.7001 167.7 60.7001 169.4C60.7001 171.1 61.0001 172.6 61.6001 174.1C62.2001 175.6 63.1001 177 64.1001 178.1C65.2001 179.2 66.4001 180.2 67.9001 180.8C69.3001 181.4 70.8001 181.7 72.3001 181.7H128.2C128.8 181.7 129.3 181.2 129.3 180.5V174.7C129.3 174.1 128.8 173.5 128.2 173.5H125V165.4H124.9ZM76.5001 157.2H128.1C128.6 157.2 129 157.5 129.2 158H135.1V154.5H80.3001C79.5001 154.5 78.7001 154.3 78.0001 154C77.3001 153.7 76.6001 153.2 76.1001 152.7L76.0001 152.6C75.4001 152 75.0001 151.3 74.7001 150.5C74.4001 149.7 74.2001 148.9 74.2001 148C74.2001 147.1 74.4001 146.3 74.7001 145.5C75.0001 144.7 75.4001 144 76.0001 143.5L76.1001 143.4C76.7001 142.8 77.3001 142.3 78.1001 142C78.8001 141.7 79.6001 141.5 80.4001 141.5H132.5H135.2V138H80.3001C79.0001 138 77.8001 138.3 76.7001 138.8C75.6001 139.3 74.5001 140.1 73.6001 141C72.7001 141.9 72.0001 143 71.6001 144.3C71.1001 145.5 70.9001 146.8 70.9001 148.1C70.9001 149.4 71.2001 150.7 71.6001 151.9C72.1001 153.1 72.8001 154.2 73.6001 155.1C74.5001 156 75.4001 156.7 76.5001 157.2ZM122.7 173.7H72.3001C71.8001 173.7 71.3001 173.6 70.8001 173.4C70.3001 173.2 69.9001 172.9 69.6001 172.6L69.5001 172.5C69.1001 172.1 68.8001 171.7 68.7001 171.1C68.5001 170.6 68.4001 170.1 68.4001 169.5C68.4001 168.9 68.5001 168.4 68.7001 167.9C68.9001 167.4 69.2001 167 69.5001 166.6L69.6001 166.5C70.0001 166.1 70.4001 165.8 70.9001 165.6C71.4001 165.4 71.9001 165.3 72.4001 165.3H122.8V173.7H122.7ZM124.3 163H72.3001C71.5001 163 70.7001 163.2 70.0001 163.5C69.3001 163.8 68.6001 164.3 68.0001 164.9L67.9001 165C67.4001 165.6 66.9001 166.3 66.6001 167C66.3001 167.8 66.1001 168.6 66.1001 169.5C66.1001 170.4 66.3001 171.2 66.6001 172C66.9001 172.8 67.4001 173.5 67.9001 174.1L68.0001 174.2C68.5001 174.8 69.2001 175.2 69.9001 175.5C70.6001 175.8 71.4001 176 72.2001 176H127V179.5H72.3001C71.0001 179.5 69.8001 179.2 68.7001 178.7C67.6001 178.2 66.5001 177.4 65.6001 176.5C64.7001 175.6 64.0001 174.5 63.6001 173.3C63.1001 172.1 62.9001 170.8 62.9001 169.5C62.9001 168.2 63.2001 166.9 63.6001 165.7C64.1001 164.5 64.8001 163.4 65.6001 162.4C66.5001 161.5 67.5001 160.7 68.7001 160.2C69.8001 159.7 71.0001 159.4 72.3001 159.4H76.2001C77.5001 159.9 78.9001 160.2 80.4001 160.2H127V162.9H124.3V163ZM130.7 152.2H80.3001C79.8001 152.2 79.3001 152.1 78.8001 151.9C78.3001 151.7 77.9001 151.4 77.6001 151.1L77.5001 151C77.1001 150.6 76.8001 150.2 76.7001 149.6C76.5001 149.1 76.4001 148.6 76.4001 148C76.4001 147.4 76.5001 146.9 76.7001 146.4C76.9001 145.9 77.2001 145.5 77.5001 145.1L77.6001 145C78.0001 144.6 78.4001 144.3 78.9001 144.1C79.4001 143.9 79.9001 143.8 80.4001 143.8H130.8V152.2H130.7ZM179.6 151.6H183.4C183.8 151.6 184.2 151.4 184.4 151.1C184.6 150.8 184.8 150.5 184.8 150.1V142.5C184.8 142.4 184.8 142.3 184.8 142.2H198.5C198.9 142.2 199.3 142 199.6 141.7C199.8 141.4 200 141 200 140.7V132.5C200 132.1 199.9 131.7 199.6 131.5C199.3 131.2 198.9 131 198.5 131H194.4V119.1H198.5C198.9 119.1 199.3 118.9 199.6 118.6C199.8 118.3 200 117.9 200 117.6V110.8C201.9 110.7 203.6 109.9 204.9 108.6C206.2 107.3 207.1 105.4 207.1 103.4V79V78.9H217.9V82.3C216.6 82.6 215.4 83.3 214.5 84.2C213.2 85.5 212.4 87.3 212.4 89.2C212.4 91 213.1 92.6 214.1 93.8C213 95 212.4 96.7 212.4 98.4V112.3C212.4 112.9 212.8 113.5 213.3 113.7L223.5 119.6C224.2 120 225.2 119.8 225.6 119C225.7 118.8 225.8 118.5 225.8 118.2C225.8 114.8 226 111.3 226.2 107.9C226.4 104.5 226.5 101.2 226.5 98.3C226.5 96.5 225.8 94.9 224.8 93.7C225.9 92.5 226.5 90.8 226.5 89.1C226.5 87.2 225.7 85.5 224.5 84.2L224.4 84.1C223.5 83.2 222.3 82.5 221 82.2V78.8H232.3C233.9 78.8 235.3 78.2 236.3 77.1C237.3 76.1 238 74.6 238 73.1C238 71.5 237.4 70.1 236.3 69.1C235.3 68.1 233.8 67.4 232.3 67.4H221V64.7C221 63.8 220.3 63.1 219.4 63.1C218.5 63.1 217.8 63.8 217.8 64.7V67.4H182.6C182.1 66 181.3 64.8 180.3 63.8C178.5 62 176 60.9 173.3 60.9C170.6 60.9 168.1 62 166.3 63.8C165.3 64.8 164.5 66 164 67.4H113.5C111.9 67.4 110.5 68 109.5 69.1C108.5 70.1 107.8 71.6 107.8 73.1C107.8 74.7 108.4 76.1 109.5 77.1C110.5 78.1 112 78.8 113.5 78.8H138.6V78.9V103.3C138.6 104.9 139.1 106.5 140.1 107.7H126.7C125.7 107.7 124.7 107.8 123.8 108C122.8 108.2 121.9 108.6 121 109C120.1 109.4 119.2 110 118.4 110.6C117.6 111.2 116.8 112 116.1 112.8C115.4 113.6 114.8 114.5 114.3 115.4C113.8 116.3 113.3 117.3 112.9 118.4C112.5 119.4 112.3 120.5 112.1 121.6C111.9 122.7 111.8 123.8 111.8 124.9C111.8 126 111.9 127.1 112.1 128.2C112.3 129.3 112.6 130.4 112.9 131.4C113 131.7 113.1 132 113.2 132.2H116.5C116.2 131.6 115.9 130.9 115.7 130.3C115.4 129.5 115.2 128.6 115 127.6C114.8 126.7 114.8 125.8 114.8 124.8C114.8 123.8 114.9 122.9 115 122C115.2 121.1 115.4 120.2 115.7 119.3C116 118.4 116.4 117.6 116.8 116.9C117.2 116.1 117.7 115.4 118.3 114.8C118.9 114.1 119.5 113.6 120.1 113C120.7 112.5 121.4 112.1 122.2 111.7C122.9 111.4 123.6 111.1 124.4 110.9C125.1 110.7 125.9 110.6 126.7 110.6H197V115.7H193.6H126.7C126.2 115.7 125.6 115.8 125.1 115.9C124.6 116 124.1 116.2 123.6 116.4C123.1 116.6 122.6 116.9 122.2 117.3C121.8 117.6 121.4 118 121 118.4C120.6 118.8 120.3 119.3 120 119.8C119.7 120.3 119.5 120.8 119.3 121.3C119.1 121.8 119 122.4 118.9 123C118.8 123.6 118.8 124.1 118.8 124.7C118.8 125.3 118.9 125.9 118.9 126.4C119 127 119.1 127.5 119.3 128.1C119.5 128.7 119.7 129.2 120 129.7C120.3 130.2 120.6 130.7 121 131.1L121.1 131.2C121.4 131.5 121.7 131.9 122.1 132.2H136.2C137.6 132.2 138.8 132.9 139.6 133.9H197V139H140.5V140.9V142.1V142.5C140.5 143 140.4 143.4 140.3 143.8H182V148.5H178.8H136.1V148.7C137.9 148.7 139.5 149.8 140.1 151.4H176.7V153.5H154.2C153.8 153.5 153.4 153.7 153.2 154C153 154.3 152.8 154.6 152.8 155C152.8 155.4 152.9 155.7 153.2 156C153.5 156.3 153.8 156.5 154.2 156.5H176.7V162.6H138.7C138 163.2 137.1 163.5 136.1 163.5H132.5V164.1C132.5 164.6 132.4 165.1 132.3 165.6H182V170.3H128.1V170.4C130 170.4 131.5 171.6 132.2 173.2H183.4C183.8 173.2 184.2 173 184.4 172.7C184.6 172.4 184.8 172.1 184.8 171.7V164.1C184.8 163.7 184.7 163.4 184.4 163.1C184.1 162.8 183.8 162.6 183.4 162.6H179.6V151.6ZM148.4 153.7C148.8 153.7 149.2 153.9 149.4 154.2C149.6 154.5 149.8 154.8 149.8 155.2C149.8 155.6 149.7 155.9 149.4 156.2C149.1 156.5 148.8 156.7 148.4 156.7H140.5V153.8H148.4V153.7ZM222.2 95.7C222.9 96.4 223.3 97.4 223.3 98.5C223.3 101.5 223.1 104.7 223 107.9C222.9 110.5 222.7 113.1 222.7 115.7L215.5 111.5V98.5C215.5 97.4 215.9 96.4 216.6 95.7C217.5 96.1 218.4 96.3 219.4 96.3C220.4 96.3 221.4 96.1 222.2 95.7ZM222.2 86.4C222.9 87.2 223.4 88.1 223.4 89.2C223.4 90.3 223 91.3 222.2 92C221.5 92.7 220.5 93.2 219.4 93.2C218.3 93.2 217.3 92.8 216.6 92C215.9 91.3 215.4 90.3 215.4 89.2C215.4 88.1 215.8 87.1 216.6 86.4C217.3 85.7 218.3 85.2 219.4 85.2C220.5 85.2 221.5 85.7 222.2 86.4ZM61.8001 150.6H49.8001C50.4001 147.6 52.9001 141.4 62.9001 141.9C63.8001 141.9 64.5001 141.3 64.5001 140.4C64.5001 139.5 63.9001 138.8 63.0001 138.8C47.6001 138.1 46.5001 150.6 46.5001 152V152.2C46.5001 153.1 47.2001 153.8 48.1001 153.8H61.9001C62.8001 153.8 63.5001 153.1 63.5001 152.2C63.3001 151.3 62.6001 150.6 61.8001 150.6ZM191.4 131V124.5H167.4C167 124.5 166.6 124.3 166.3 124C166.1 123.7 165.9 123.3 165.9 123C165.9 122.6 166 122.2 166.3 122C166.6 121.7 167 121.5 167.4 121.5H191.4V119.3H126.7C126.4 119.3 126.1 119.3 125.8 119.4C125.5 119.5 125.2 119.6 124.9 119.7C124.6 119.8 124.3 120 124.1 120.2C123.8 120.4 123.6 120.7 123.3 120.9C123.1 121.2 122.9 121.5 122.7 121.8C122.5 122.1 122.4 122.5 122.2 122.8C122.1 123.2 122 123.5 121.9 123.9C121.8 124.3 121.8 124.7 121.8 125.1C121.8 125.5 121.8 125.9 121.9 126.3C122 126.7 122.1 127.1 122.2 127.4C122.3 127.8 122.5 128.1 122.7 128.4C122.9 128.7 123.1 129 123.3 129.3C123.5 129.6 123.8 129.8 124 130C124.3 130.2 124.5 130.4 124.8 130.5C125.1 130.6 125.4 130.7 125.7 130.8C126 130.9 126.3 130.9 126.6 130.9H191.4V131ZM161 121.3H152C151.6 121.3 151.2 121.5 150.9 121.8C150.7 122.1 150.5 122.5 150.5 122.8C150.5 123.2 150.6 123.6 150.9 123.8C151.2 124.1 151.6 124.3 152 124.3H161C161.4 124.3 161.8 124.1 162.1 123.8C162.3 123.5 162.5 123.1 162.5 122.8C162.5 122.4 162.4 122 162.1 121.8C161.8 121.5 161.5 121.3 161 121.3ZM221 70.6H232.3C233 70.6 233.7 70.9 234.1 71.4C234.6 71.9 234.9 72.5 234.9 73.2C234.9 73.9 234.6 74.6 234.1 75C233.6 75.5 233 75.8 232.3 75.8H221V70.6ZM217.8 75.7V70.5H113.5C112.8 70.5 112.1 70.8 111.7 71.3C111.2 71.8 110.9 72.4 110.9 73.1C110.9 73.8 111.2 74.5 111.7 74.9C112.2 75.4 112.8 75.7 113.5 75.7H217.8ZM167.5 67.5C167.8 67 168.1 66.5 168.6 66.1C169.8 64.9 171.5 64.1 173.4 64.1C175.3 64.1 177 64.9 178.2 66.1C178.6 66.5 179 67 179.3 67.5H167.5ZM203.9 78.9H141.7V79V103.4C141.7 104.6 142.2 105.6 142.9 106.4C143.7 107.2 144.7 107.6 145.9 107.6H199.6C200.8 107.6 201.8 107.1 202.6 106.4C203.4 105.6 203.8 104.6 203.8 103.4L203.9 78.9ZM79.1001 112.9C77.8001 112.9 76.5001 113.4 75.7001 114.3C74.8001 115.2 74.3001 116.4 74.3001 117.7C74.3001 119 74.8001 120.3 75.7001 121.1C76.6001 122 77.8001 122.5 79.1001 122.5C80.4001 122.5 81.7001 122 82.5001 121.1C83.4001 120.2 83.9001 119 83.9001 117.7C83.9001 116.4 83.4001 115.1 82.5001 114.3C81.7001 113.4 80.5001 112.9 79.1001 112.9ZM80.3001 116.5C80.0001 116.2 79.5001 116 79.1001 116C78.6001 116 78.2001 116.2 77.9001 116.5C77.6001 116.8 77.4001 117.3 77.4001 117.7C77.4001 118.2 77.6001 118.6 77.9001 118.9C78.2001 119.2 78.7001 119.4 79.1001 119.4C79.6001 119.4 80.0001 119.2 80.3001 118.9C80.6001 118.6 80.8001 118.1 80.8001 117.7C80.9001 117.3 80.7001 116.8 80.3001 116.5ZM102 72.9L95.4001 79.8C94.8001 80.4 94.8001 81.4 95.4001 82C96.0001 82.6 97.0001 82.6 97.6001 82L104.2 75.1C104.8 74.5 104.8 73.5 104.2 72.9C103.6 72.2 102.6 72.3 102 72.9ZM93.9001 44.9L110.5 63.7C111.1 64.3 112.1 64.4 112.7 63.8C113.3 63.2 113.4 62.2 112.8 61.6L96.3001 42.8C95.7001 42.2 94.7001 42.1 94.1001 42.7C93.4001 43.3 93.3001 44.3 93.9001 44.9ZM88.5001 42.8L67.2001 79.8C66.8001 80.5 67.0001 81.5 67.8001 81.9C68.5001 82.3 69.5001 82.1 69.9001 81.3L91.2001 44.3C91.6001 43.6 91.4001 42.6 90.6001 42.2C89.9001 41.8 88.9001 42.1 88.5001 42.8ZM60.5001 42.1L44.2001 61.9C43.7001 62.5 43.7001 63.4 44.3001 64L59.4001 82.4C59.9001 83.1 60.9001 83.2 61.6001 82.6C62.3001 82.1 62.4001 81.1 61.8001 80.4L47.4001 62.9L62.9001 44C63.4001 43.3 63.3001 42.3 62.7001 41.8C62.0001 41.3 61.0001 41.4 60.5001 42.1Z" fill="#4D5553"/>
</svg>
