<svg width="240" height="200" viewBox="0 0 240 200" fill="none" xmlns="http://www.w3.org/2000/svg">
<path fill-rule="evenodd" clip-rule="evenodd" d="M167 149.8H19.9C18.5 149.8 17.2 149.5 16 149C14.8 148.5 13.6 147.7 12.7 146.8C11.8 145.9 11 144.7 10.5 143.5C9.99995 142.3 9.69995 141 9.69995 139.6V12.9C9.69995 11.5 9.99995 10.2 10.5 9.00001C11 7.80001 11.8 6.60001 12.7 5.70001C13.6 4.80001 14.8 4.00001 16 3.50001C17.2 3.00001 18.5 2.70001 19.9 2.70001H199.8C201.2 2.70001 202.5 3.00001 203.7 3.50001C204.9 4.00001 206.1 4.80001 207 5.70001C207.9 6.60001 208.7 7.80001 209.2 9.00001C209.7 10.2 210 11.5 210 12.9V91.8C213.2 91.9 217.4 92.6 220.5 95C223.8 97.6 225.9 102.2 224.4 110.1C225.3 110.8 226.7 111.9 228.1 113.5C229.6 115.3 231.1 117.7 231.5 120.5C231.9 123.3 231.3 126.6 228.8 130.1C227.7 131.6 226.2 133.2 224.3 134.9C224.5 135.6 224.7 136.5 224.9 137.6C225.2 139.9 225.3 143 224.2 145.8C223.1 148.7 220.7 151.3 216.2 152.6C215.4 152.8 214.6 153 213.7 153.2V197H207.8L194 182.4L181 197.1H174.4V153.5C173.1 153.3 171.9 152.9 170.6 152.3C169.4 151.7 168.1 150.9 167 149.8ZM210.7 153.7C210.1 153.7 209.5 153.7 208.8 153.7C208 153.7 207.2 153.7 206.4 153.6C205.8 154.3 204.9 155.5 203.5 156.6C201.6 158.2 199 159.9 195.9 160.5C192.8 161 189.1 160.4 185.2 157.4C183.9 156.4 182.7 155.2 181.3 153.8C180.8 153.9 180.1 153.9 179.2 153.9C178.7 153.9 178.1 153.9 177.4 153.9V194H179.5L193.9 177.8L209.1 194H210.6V153.7H210.7ZM158.8 68.1C159.5 67.4 160.1 66.5 160.5 65.5C160.9 64.5 161.1 63.5 161.1 62.4C161.1 61.3 160.9 60.2 160.5 59.3C160.1 58.3 159.5 57.4 158.7 56.7C158 56 157.2 55.5 156.4 55.1C155.7 54.8 155 54.5 154.2 54.4V44.5H151.1V46H112.6C112.6 45.3 112.5 44.6 112.5 44C112.4 43.2 112.3 42.5 112.2 41.8C112 41 111.8 40.2 111.5 39.5C111.2 38.8 110.8 38.2 110.4 37.7C109.9 37.1 109.3 36.7 108.7 36.4C108.1 36.1 107.3 35.9 106.6 35.9C106.3 35.9 106.1 35.9 105.8 35.9C105.5 35.9 105.3 36 105 36C102.7 36.5 101.3 38.5 100.6 40.7C100 42.6 99.7999 44.6 99.7 45.9H58.7V49H82.1C81.2999 50 80.3999 51.4 79.7 53C78.7 55.2 78 58 78.1 61.4V63.9H75.2V78.3L78.1 76.3V80.3C76.9 80.6 75.2999 81.3 74.1 82.6C73.2 83.6 72.5999 85.1 72.5999 87.1C72.5999 87.6 72.5999 88 72.5999 88.4V88.5C72.5999 89.9 72.6 91.1 72.9 92.1C73.3 93.2 74 94 75.4 94.7C76.4 95.2 77.4 96.3 78.5 97.7C79.6 99.1 80.8 101 81.9 102.8C84.5 106.9 87.2 111.1 90.4 113.1C91.9 114 93.4 114.8 94.9 115.4C96.4 116.1 98 116.6 99.5 117.1C101 117.5 102.6 117.8 104.1 118C105.6 118.2 107.1 118.2 108.6 118.2C110 118.1 111.5 117.9 112.9 117.5C114.4 117.1 116 116.5 117.5 115.8C119.1 115.1 120.6 114.2 122.1 113.3C123.6 112.4 125 111.3 126.2 110.2C127.9 108.7 129.3 106.8 130.4 104.9C131.5 103 132.3 101.2 132.9 99.7C133.1 99.1 133.4 98.7 133.6 98.2C133.8 97.8 133.9 97.5 134 97.4C134.2 97.2 134.4 96.9 134.7 96.7C135 96.5 135.3 96.3 135.7 96.1C136.2 95.8 136.7 95.5 137.2 95.1C137.7 94.7 138.2 94.2 138.6 93.6C139 93 139.4 92.1 139.7 91C140 90 140.1 88.8 140.1 87.7C140.1 86.6 140 85.6 139.7 84.7C139.4 83.9 139 83.1 138.4 82.7C137.8 82.3 137.3 81.9 136.8 81.6C136.5 81.4 136.2 81.2 136 81.1V77.3H136.1C136.4 77.4 136.7 77.4 137 77.5L138.8 77.8V64.1H136V63.1C136 62.9 135.8 54.3 131.1 49.1H151.1V54.5C150.4 54.7 149.8 54.9 149.2 55.2C148.5 55.6 147.8 56.1 147.2 56.7C146.5 57.4 145.8 58.3 145.4 59.3C145 60.3 144.8 61.3 144.8 62.4C144.8 63.5 145 64.6 145.4 65.5C145.8 66.5 146.4 67.4 147.2 68.1C147.5 68.4 147.9 68.7 148.3 69C148.6 69.2 148.9 69.4 149.2 69.5V93.1H152.3V70.5C152.5 70.5 152.8 70.5 153 70.5C153.6 70.5 154.2 70.4 154.8 70.3C155.1 70.2 155.4 70.1 155.7 70V98.7H158.8V68.1ZM217.5 122.5C217.5 119.3 216.9 116.3 215.7 113.5C214.5 110.6 212.8 108 210.6 105.9C208.4 103.7 205.8 102 203 100.8C200.2 99.7 197.2 99 194 99C190.8 99 187.8 99.6 185 100.8C182.1 102 179.5 103.7 177.4 105.9C175.2 108.1 173.5 110.7 172.3 113.5C171.2 116.3 170.5 119.3 170.5 122.5C170.5 125.7 171.1 128.7 172.3 131.5C173.5 134.4 175.2 137 177.4 139.1C179.6 141.3 182.2 143 185 144.2C187.8 145.3 190.8 146 194 146C197.2 146 200.2 145.4 203 144.2C205.9 143 208.5 141.3 210.6 139.1C212.8 136.9 214.5 134.3 215.7 131.5C216.9 128.7 217.5 125.7 217.5 122.5ZM208.4 136.9C210.3 135 211.8 132.8 212.8 130.3C213.8 127.9 214.3 125.3 214.3 122.5C214.3 119.7 213.8 117.1 212.8 114.7C211.8 112.2 210.2 110 208.4 108.1C206.5 106.2 204.3 104.7 201.8 103.7C199.4 102.7 196.8 102.2 194 102.2C191.2 102.2 188.6 102.7 186.2 103.7C183.7 104.7 181.5 106.3 179.6 108.1C177.7 110 176.2 112.2 175.2 114.7C174.2 117.1 173.7 119.7 173.7 122.5C173.7 125.3 174.2 127.9 175.2 130.3C176.2 132.8 177.8 135 179.6 136.9C181.4 138.8 183.7 140.3 186.2 141.3C188.6 142.3 191.2 142.8 194 142.8C196.8 142.8 199.4 142.3 201.8 141.3C204.3 140.3 206.5 138.8 208.4 136.9ZM109.5 46C109.5 45.4 109.5 44.9 109.4 44.3C109.3 43.6 109.2 43 109.1 42.4C109 41.8 108.8 41.2 108.6 40.8C108.4 40.4 108.2 40 107.9 39.7C107.7 39.5 107.5 39.3 107.2 39.2C106.9 39.1 106.6 39 106.3 39C106.2 39 106 39 105.9 39C105.8 39 105.6 39 105.4 39.1C104.5 39.3 103.9 40.1 103.4 41.2C102.8 42.7 102.6 44.7 102.5 46.1H109.5V46ZM156.6 66C157.1 65.5 157.4 65 157.7 64.4C157.9 63.8 158.1 63.2 158.1 62.5C158.1 61.8 158 61.2 157.7 60.6C157.4 60 157.1 59.4 156.6 59C156.1 58.5 155.6 58.2 155 57.9C154.4 57.7 153.8 57.5 153.1 57.5C152.4 57.5 151.8 57.6 151.2 57.9C150.6 58.2 150 58.5 149.6 59C149.1 59.5 148.8 60 148.5 60.6C148.3 61.2 148.1 61.8 148.1 62.5C148.1 63.2 148.2 63.8 148.5 64.4C148.8 65 149.1 65.6 149.6 66C150.1 66.5 150.6 66.8 151.2 67.1C151.8 67.3 152.4 67.5 153.1 67.5C153.8 67.5 154.4 67.4 155 67.1C155.5 66.8 156.1 66.4 156.6 66ZM98.7 99.2H98.1V102.3H98.7C98.7 102.3 99.9 102.3 100.4 102.8C100.8 103.2 101.4 103.5 102.2 103.8C103 104 104.1 104.2 105.1 104.3C106.2 104.4 107.4 104.5 108.5 104.4C109.5 104.4 110.4 104.3 110.9 104.1C112 103.7 112.5 103.2 113 102.7C113.1 102.6 113.2 102.5 113.3 102.4C113.4 102.3 113.5 102.3 113.6 102.3L114.1 102.2L113.5 99.2L113 99.3C111.8 99.5 111.3 100.1 110.7 100.6C110.5 100.8 110.2 101.1 109.8 101.2C109.5 101.3 108.9 101.3 108.1 101.4C107.3 101.4 106.2 101.4 105.3 101.3C104.5 101.2 103.8 101.1 103.2 101C102.8 100.9 102.6 100.9 102.5 100.8C101.4 99.2 98.7999 99.2 98.7 99.2ZM120.4 82.9C120.4 82 120.1 81.2 119.6 80.6C119.1 80 118.4 79.6 117.6 79.6C116.8 79.6 116.1 80 115.6 80.6C115.1 81.2 114.8 82 114.8 82.9C114.8 83.8 115.1 84.6 115.6 85.2C116.1 85.8 116.8 86.2 117.6 86.2C118.4 86.2 119.1 85.8 119.6 85.2C120.1 84.7 120.4 83.8 120.4 82.9ZM99.3 82.9C99.3 82 99 81.2 98.5 80.6C98 80 97.3 79.6 96.5 79.6C95.7 79.6 95 80 94.5 80.6C94 81.2 93.7 82 93.7 82.9C93.7 83.8 94 84.6 94.5 85.2C95 85.8 95.7 86.2 96.5 86.2C97.3 86.2 98 85.8 98.5 85.2C99 84.7 99.3 83.8 99.3 82.9ZM81.2 71.1C82.7 70.3 84.5 69.4 86.1 68.8C88.1 68.1 90.1 67.7 91.6 68C92.7 68.2 93.7 68.7 94.8 69.2C95.9 69.7 96.9 70.4 98 71C100.7 72.6 103.5 74.2 105.8 74C108 73.8 111.1 72.3 114.2 70.9C117.3 69.4 120.3 68 122.6 67.8C124 67.7 125.2 68 126.4 68.6C127.6 69.2 128.8 70 130 70.9C130.6 71.3 131.2 71.7 131.8 72.1C132.1 72.3 132.5 72.5 132.9 72.8V63.1C132.9 62.6 132.7 58 130.7 54C129.7 52 128.2 50.1 126 49.1H86.4C85.8 49.6 84.6 50.7 83.5 52.6C82.3 54.7 81.2 57.6 81.2 61.6V71.1ZM133 76.4C132.2 76 131.4 75.6 130.7 75.1C129.9 74.6 129.1 74 128.4 73.5C127.3 72.8 126.4 72.1 125.4 71.6C124.5 71.2 123.7 70.9 123 71C121.2 71.2 118.5 72.5 115.6 73.8C112.3 75.4 108.9 77 106.1 77.2C102.8 77.5 99.6 75.6 96.5 73.8C95.5 73.2 94.5 72.6 93.6 72.2C92.7 71.7 91.8 71.4 91 71.2C90 71 88.7 71.3 87.2 71.8C85.2 72.5 83 73.7 81.3 74.7C81.3 77.6 81.3 80.5 81.3 83.3L79.9 83.4C79.9 83.4 78 83.5 76.8 84.7C76.2 85.3 75.8 86.1 75.8 87.3V88.8C75.8 89.7 75.8 90.5 75.9 91.1C76 91.6 76.3 91.9 76.8 92.2C78.2 92.9 79.6 94.2 80.9 95.9C82.2 97.5 83.3999 99.5 84.7 101.4C85.8999 103.3 87.2 105.3 88.4 106.9C89.6 108.5 90.8999 109.9 92.2 110.7C93.6 111.5 95 112.2 96.4 112.9C97.8 113.5 99.2 114 100.6 114.4C102 114.8 103.4 115.1 104.7 115.2C106.1 115.4 107.4 115.4 108.7 115.4C109.9 115.3 111.1 115.1 112.4 114.8C113.8 114.4 115.2 113.9 116.5 113.3C117.9 112.6 119.4 111.9 120.7 111C122 110.1 123.3 109.2 124.4 108.2C125.9 106.9 127 105.2 128 103.6C129 101.9 129.7 100.2 130.3 98.8C130.6 98.2 130.8 97.6 131 97.2C131.2 96.7 131.5 96.3 131.7 96C132.1 95.5 132.5 95.1 132.9 94.8C133.3 94.5 133.8 94.2 134.2 93.9C134.6 93.7 135 93.4 135.3 93.2C135.6 92.9 135.9 92.7 136.2 92.3C136.4 92 136.7 91.4 136.8 90.7C137 89.9 137.1 89.1 137.1 88.2C137.1 87.5 137 86.9 136.9 86.4C136.8 86 136.7 85.7 136.5 85.6C135.9 85.2 135.4 84.8 135.1 84.6C134.3 84.1 133.9 83.9 133.9 83.9C133.6 83.8 133.2 83.6 133 83.4V76.4ZM207 91.8V12.9C207 11.9 206.8 11 206.5 10.2C206.1 9.30001 205.6 8.60001 205 7.90001C204.4 7.20001 203.6 6.70001 202.7 6.40001C201.9 6.10001 201 5.90001 200 5.90001H19.9C18.9 5.90001 18 6.10001 17.2 6.40001C16.3 6.80001 15.6 7.30001 14.9 7.90001C14.2 8.60001 13.7 9.30001 13.4 10.2C13.1 11 12.9 11.9 12.9 12.9V139.6C12.9 140.6 13.1 141.5 13.4 142.3C13.8 143.2 14.3 143.9 14.9 144.6C15.6 145.3 16.3 145.8 17.2 146.1C18 146.4 18.9 146.6 19.9 146.6H165C164.5 145.5 164.2 144.3 164 142.9C163.8 141.5 163.8 139.9 164 138H40.2C40.1 137.7 40 136.9 40 136.7C39.7999 135.7 36.9 120.5 20.2 114.8L19.1 114.4V37.1C19.5 37 19.8 36.8 20.2 36.7C20.3 36.7 35.6 31.9 40 15.4L40.2999 14.2H177.7L178.1 15.2C178.1 15.2 180.6 22.3 186.2 28C189 30.9 192.6 33.4 197.1 34.6L198.2 34.9V85C199.5 85.5 200.8 86.2 202.1 87.3C203.5 88.4 204.9 89.9 206.4 91.9L207 91.8ZM164.5 135.1C163.2 134.3 160.8 132.7 159 130.4C157.7 128.8 156.7 126.9 156.4 124.7C156.1 122.5 156.5 120 158.1 117.2C159.4 115 161.5 112.6 164.6 110.1C164.3 108.1 163.8 103.4 165.6 99.4C167.6 95.1 172.2 91.7 182.2 93C183.2 91.5 185.4 88.4 188.5 86.4C190.4 85.2 192.6 84.3 195.1 84.4V37.4C188.9 35.4 184.3 31.1 181.1 27C178.1 23 176.3 19.2 175.5 17.4H42.7C41 22.9 38.2 27.2 35.2 30.4C30.2 35.8 24.5 38.4 22.3 39.3V112.4C28.1 114.6 32.2999 117.8 35.2999 121.2C40.2999 126.7 42.2 132.6 42.7999 135.1H164.5ZM221.3 110.4C223.6 99.9 218.5 96.3 213.6 95.3C209.8 94.5 206.1 95 205.9 95.1C205.7 95.2 205.2 95.2 204.9 95.2L204.3 94.4C198.4 86 193.1 86.9 189.5 89.5C186.3 91.8 184.3 95.3 184.3 95.3L183.8 96.2L182.7 96C171.5 94.2 168.2 99.3 167.5 103.8C167 107.1 167.7 110.1 167.7 110.2C167.7 110.4 167.9 110.9 167.9 111.2L167.1 111.8C157.6 119.1 158.7 124.9 161.5 128.5C163.7 131.3 166.8 132.8 166.8 132.9L167.9 133.5L167.6 134.7C165 145.6 169.8 149.3 174.5 150.4C177.9 151.2 181.2 150.7 181.5 150.7L182.4 150.6L183 151.3C190.8 160.6 197.6 157.6 201.3 154.5C203.2 152.9 204.2 151.3 204.3 151.3L204.8 150.6L205.7 150.7C218.5 151.7 221.6 146.2 222 141.5C222.2 138.2 221.2 135.2 221.1 135.2C221 134.9 220.8 134.5 220.7 134.2L221.5 133.5C230.9 125.8 228.6 119.5 225.6 115.8C223.8 113.6 221.8 112.4 221.8 112.3C221.5 112.1 221.2 111.9 220.9 111.7L221.3 110.4Z" fill="#4D5553"/>
</svg>
