<svg width="240" height="200" viewBox="0 0 240 200" fill="none" xmlns="http://www.w3.org/2000/svg">
<path fill-rule="evenodd" clip-rule="evenodd" d="M95.3 28.4V9.09999C95.3 7.59999 94.7 6.29999 93.7 5.29999C92.7 4.29999 91.4 3.69999 89.9 3.69999C88.4 3.69999 87.1 4.29999 86.1 5.29999C85.1 6.29999 84.5 7.59999 84.5 9.09999C84.5 15.5 84.4 22.1 84.5 28.5C84.5 29.2 83.9 29.8 83.3 29.8H81.2C79.5 29.8 78 30.5 76.9 31.6C75.8 32.7 75.1 34.2 75.1 35.9V53.8C75.1 57.9 76.8 61.6 79.5 64.3C82.2 67 85.9 68.7 90 68.7C94.1 68.7 97.8 67 100.5 64.3C103.2 61.6 104.9 57.9 104.9 53.8V35.9C104.9 34.2 104.2 32.7 103.1 31.6C102 30.5 100.5 29.8 98.8 29.8H96.7C96 29.8 95.4 29.2 95.4 28.5L95.3 28.4ZM54.6 29.3L54.5 28.4C54.4 27.1 54.2 25.7 54 24.4C53.2 19.9 51.5 16 45.2 17.1C38.2 18.3 37.7 22.2 38.5 26.4C38.7 27.5 38.9 28.6 39.2 29.6C39.4 30.3 39.5 30.9 39.6 31.6L56.4 29L54.6 29.3ZM37.3 33.3C37.1 32.3 36.9 31.3 36.7 30.3C36.4 29.2 36.2 28 36 26.9C35 21.3 35.6 16.2 44.8 14.6C53.2 13.1 55.5 18.2 56.5 23.9C56.7 25.3 56.9 26.7 57 28.1L57.1 29.1C57.5 29.3 57.8 29.6 57.9 30.1L59.4 39.5C59.5 40.2 59 40.8 58.4 40.9L58.1 41L63.3 78.8C65 78.7 66.7 78.6 68.5 78.4L68.2 65.4C68.2 65.2 68.2 65.1 68.3 64.9L72.5 52.7V35.9C72.5 33.5 73.5 31.4 75 29.8C76.6 28.2 78.7 27.3 81.1 27.3H81.9V9.19999C81.9 6.99999 82.7999 4.99999 84.2 3.59999C85.6 2.19999 87.6 1.29999 89.8 1.29999C92 1.29999 94 2.19999 95.4 3.59999C96.8 4.99999 97.7 6.99999 97.7 9.19999V27.3H98.5C100.9 27.3 103 28.3 104.6 29.8C106.2 31.4 107.1 33.5 107.1 35.9V51.8C112.6 67.7 127.6 111 130 118.2C131.6 122.9 131.7 126.5 130.7 129.5C130.1 131.5 129 133.1 127.6 134.7C139.8 134.5 181 134.6 188 145.1C188.5 145.9 188.6 146.7 188.4 147.5C187.8 149.5 184.6 151.2 179.4 152.6C174.6 153.9 168 155 160.4 155.9C128.5 159.6 78 159.1 62.2 148.8C61.9 148.6 61.7 148.3 61.6 147.9L60.5 142L49.5 122.8V122.7V122.6V122.5V122.4L46.6 100.1C44.9 99 43.2 97 42.4 93.5L39.3 93.6L39.6 102.8C39.6 103.5 39.1 104.1 38.4 104.1L25.5 104.5C24.8 104.5 24.2 104 24.2 103.3L23.9 84C23.9 83.3 24.4 82.7 25.1 82.7L37.6 81.9C38.3 81.9 38.9 82.4 38.9 83.1L39.2 91.2L41.9 91.1C41.4 86.8 42.4 84 44.3 82.3L44.2 82.4L39.3 44.6C38.7 44.6 38.1 44.2 38 43.6V43.5L37.3 33.3ZM55.6 31.7L56.7 38.6L40.4 41.5L39.9 34.2L55.6 31.7ZM55.6 41.3L41.8 43.8L46.6 80.6C47.8 80.1 49.1 79.7 50.6 79.4C53.3 78.9 56.4 78.8 59.8 78.7H60.7L55.6 41.3ZM71.4 99.1C71.2 99.5 70.8 99.8 70.3 99.9C68.9 100 67.6 100.1 66.2 100.2L69 120.6V120.7C69 120.8 69 121 68.9 121.1L63.2 142L64.1 146.8C79.8 156.5 129 156.9 160.2 153.3C167.7 152.4 174.2 151.3 178.8 150C183.1 148.8 185.7 147.7 186.1 146.6C186.1 146.5 186.1 146.4 186 146.3C179 135.7 129.7 137 124.8 137.1C124.3 137.5 123.9 137.7 123.4 138L126.3 146C126.5 146.7 126.2 147.4 125.5 147.6C124.8 147.8 124.1 147.5 123.9 146.8L121 138.7C117.9 138.9 116.3 136 116 135.4C116 135.3 115.9 135.3 115.9 135.2L111 120.7V120.6L102.4 95.2L94 70.7C92.7 71 91.3 71.2 89.9 71.2C88.3 71.2 86.7 71 85.2 70.6L71.4 99.1ZM63.7 100.4C59.4 100.8 55.1 101.2 50.9 101.4C50.9 101.4 50.2 101.4 49.2 101.1L51.7 120.2C57.4 117.8 63.4 118.5 66.3 119.1L63.7 100.4ZM68.9 97.5L67.5 80.9C64.9 81.1 62.4 81.2 59.9 81.3C56.6 81.4 53.6 81.5 51 81.9C46.2 82.7 43.3 85.1 44.6 92C45.8 98.6 50.6 98.8 51 98.8L68.9 97.5ZM123.6 135C120.1 137.8 118.6 134.8 118.4 134.4L113.9 121.1C117.9 119.6 119.5 116.1 119.7 112.2C119.8 109.5 119.1 106.4 117.9 103.7C116.7 101 115 98.5 113 96.7C110.5 94.5 107.6 93.4 104.9 94.5L96.5 69.8C98.7 68.9 100.6 67.6 102.2 66C104.4 63.8 106 61 106.8 57.9C113.2 76.5 125.6 112.4 127.8 118.9C129.2 123 129.3 126.1 128.5 128.6C127.7 131.1 126 133.1 123.6 135ZM52.5 122.6L61.6 138.5L66.3 121.6C63.8 121.1 58 120.2 52.5 122.6ZM26.5 84.9L26.7 101.8L37 101.5L36.4 84.3L26.5 84.9ZM89.9 46.7C91.9 46.7 93.7999 47.5 95.1 48.9C96.4 50.3 97.3 52.1 97.3 54.1C97.3 56.1 96.5 58 95.1 59.3L95 59.4C93.7 60.7 91.8 61.5 89.8 61.5C87.8 61.5 85.9 60.7 84.6 59.3C83.2999 58 82.4 56.1 82.4 54.1C82.4 52.1 83.2 50.2 84.6 48.9C86 47.5 87.8 46.7 89.9 46.7ZM93.3 50.7C94.2 51.6 94.7 52.8 94.7 54.2C94.7 55.5 94.2 56.8 93.3 57.7L93.2 57.8C92.2999 58.6 91.1 59.2 89.8 59.2C88.4 59.2 87.2 58.7 86.3 57.8C85.4 56.9 84.9 55.7 84.9 54.3C84.9 52.9 85.4 51.7 86.3 50.8C87.2 49.9 88.4 49.4 89.8 49.4C91.2 49.2 92.4 49.8 93.3 50.7ZM82.8 69.7L71.4 93.4L70.7 65.4L73.1 58.4C73.9 61.3 75.5 63.9 77.6 66C79.1 67.6 80.9 68.8 82.8 69.7ZM105.6 97L113 118.8C115.8 117.6 117 115.1 117.1 112.2C117.2 109.8 116.6 107.2 115.5 104.8C114.4 102.4 113 100.2 111.3 98.7C109.5 97 107.5 96.3 105.6 97ZM130.6 108.6H182.2C182.4 108.6 182.6 108.6 182.8 108.5C183.1 108.4 185.4 107.9 188.9 114.4C193 122.1 217 185.5 218.2 188.7C218.3 189.7 218.7 196 212.1 195.4C203.4 194.6 31.4 195.4 24.7 195.4C23.7 195.1 18.9 193.1 20.1 187.8C21.7 181 44.3 127.7 44.4 127.6C44.7 127 44.4 126.2 43.7 125.9C43.1 125.6 42.3 125.9 42 126.6C41.9 126.8 19.2 180.2 17.6 187.3C15.7 195.4 24 197.9 24.1 197.9C24.2 197.9 24.3 198 24.5 198C25 198 203.1 197.2 211.9 198C222 198.9 220.8 189 220.8 188.3C220.8 188.2 220.8 188.1 220.7 188C220.6 187.8 195.5 121.3 191.2 113.2C187.2 105.6 183.3 105.8 182.2 106.1H130.7C130 106.1 129.4 106.7 129.4 107.4C129.3 108 129.9 108.6 130.6 108.6ZM71.5 108.9H97.4C98.1 108.9 98.7 108.3 98.7 107.6C98.7 106.9 98.1 106.3 97.4 106.3H71.5C70.8 106.3 70.2 106.9 70.2 107.6C70.2 108.3 70.8 108.9 71.5 108.9Z" fill="#4D5553"/>
</svg>
