<svg xmlns="http://www.w3.org/2000/svg" width="224" height="24.8" viewBox="0 0 224 24.8"><g transform="translate(-0.5 -4.6)"><path d="M.5,19.9V16.5L13.4,11v4.1l-8,2.7-1,.4,1,.4,8,2.8v4.1Z" fill="#33ffa8"/><path d="M22,18v6.1H32.1v3.4H17.9V5.8H32.1V9.3H22v5.5h8.7v3.4L22,18Z" fill="#fff"/><path d="M45.1,4.6V24.2h4.5v3.4H36.3V24.2H41V8H36.3V4.6Z" fill="#fff"/><path d="M60.5,11.4h5.8v3.1H60.5v7a6.752,6.752,0,0,0,.2,1.4,1.456,1.456,0,0,0,.6.9,2.622,2.622,0,0,0,.9.5,4.869,4.869,0,0,0,1.2.1h1c.4,0,.6-.1.9-.1s.6-.1.8-.1.5-.1.7-.1l.4,2.9a3,3,0,0,1-1,.4l-1.2.2c-.4.1-.9.1-1.3.2a6.15,6.15,0,0,1-1.4.1,9.863,9.863,0,0,1-2.4-.3,4.185,4.185,0,0,1-1.8-1.1,7.072,7.072,0,0,1-1.2-1.8,8.627,8.627,0,0,1-.4-2.8V14.5H53V11.4h3.5v-4h4.1v4Z" fill="#fff"/><path d="M70.7,16.1a6.142,6.142,0,0,1,1.5-2.6,6.576,6.576,0,0,1,2.3-1.7,8.569,8.569,0,0,1,6.3,0,6.576,6.576,0,0,1,2.3,1.7,13.5,13.5,0,0,1,1.5,2.6,12.573,12.573,0,0,1,.5,3.3v.3a12.573,12.573,0,0,1-.5,3.3,7.2,7.2,0,0,1-1.5,2.7,6.576,6.576,0,0,1-2.3,1.7,8.569,8.569,0,0,1-6.3,0,8.068,8.068,0,0,1-2.4-1.7A8.67,8.67,0,0,1,70.7,23a12.573,12.573,0,0,1-.5-3.3v-.3A7.386,7.386,0,0,1,70.7,16.1Zm3.6,5.4a3.946,3.946,0,0,0,.6,1.5A2.66,2.66,0,0,0,76,24a4.193,4.193,0,0,0,1.6.4,2.6,2.6,0,0,0,1.5-.4,5.241,5.241,0,0,0,1.1-1,4.714,4.714,0,0,0,.6-1.5,13.553,13.553,0,0,0,.2-2v-.3a11.019,11.019,0,0,0-.2-1.8,3.946,3.946,0,0,0-.6-1.5,2.66,2.66,0,0,0-1.1-1,4.146,4.146,0,0,0-1.6-.3,2.934,2.934,0,0,0-1.6.4,5.241,5.241,0,0,0-1.1,1,4.714,4.714,0,0,0-.6,1.5,11.019,11.019,0,0,0-.2,1.8v.3C74.1,20.3,74.2,21,74.3,21.5Z" fill="#fff"/><path d="M88.3,11.4H92l.2,2.2a2.7,2.7,0,0,1,.7-.8c.3-.2.5-.5.8-.7a10.93,10.93,0,0,1,1.5-.8,5.916,5.916,0,0,1,4,.1,4.517,4.517,0,0,1,1.7,1.1,5.639,5.639,0,0,1,1.1,2,10.323,10.323,0,0,1,.4,3v10H98.3V17.6a7.719,7.719,0,0,0-.2-1.5,2.075,2.075,0,0,0-.6-1,1.905,1.905,0,0,0-1-.5,4.869,4.869,0,0,0-1.2-.1,4.1,4.1,0,0,0-1.1.1,3.552,3.552,0,0,0-.9.4,2.651,2.651,0,0,0-.6.5c-.2.2-.3.4-.5.6V27.6H88.1V11.4Z" fill="#fff"/><path d="M116.4,20.8a3.114,3.114,0,0,0-.7-.9,5.67,5.67,0,0,0-1.3-.8,10.662,10.662,0,0,0-1.9-.7,16.587,16.587,0,0,1-3.1-1.2,10.706,10.706,0,0,1-2.2-1.5,4.629,4.629,0,0,1-1.3-1.8,5.7,5.7,0,0,1-.4-2.2,4.751,4.751,0,0,1,.6-2.4,4.944,4.944,0,0,1,1.6-1.9,8.989,8.989,0,0,1,2.4-1.2,10.323,10.323,0,0,1,3-.4,11.151,11.151,0,0,1,3.1.5,6.983,6.983,0,0,1,2.4,1.3,6.524,6.524,0,0,1,1.6,2.1,5.834,5.834,0,0,1,.6,2.6h-4a2.768,2.768,0,0,0-.3-1.3,3.592,3.592,0,0,0-.7-1,4.129,4.129,0,0,0-1.1-.7,4.145,4.145,0,0,0-1.6-.2,7.719,7.719,0,0,0-1.5.2,3.582,3.582,0,0,0-1.1.4,3.114,3.114,0,0,0-.7.9,1.978,1.978,0,0,0-.2,1.1,2.016,2.016,0,0,0,.3,1.1,1.962,1.962,0,0,0,.9.9,3.694,3.694,0,0,0,1.4.7l1.8.6c.7.2,1.4.5,2.1.7a4,4,0,0,1,1.8,1,7.4,7.4,0,0,1,2,2.3,6.04,6.04,0,0,1,.7,3,5.135,5.135,0,0,1-.6,2.5,4.644,4.644,0,0,1-1.6,1.8,8.989,8.989,0,0,1-2.4,1.2,10.323,10.323,0,0,1-3,.4,11.851,11.851,0,0,1-3.2-.5,8.67,8.67,0,0,1-2.7-1.4,6.845,6.845,0,0,1-1.7-2.1,7.653,7.653,0,0,1-.6-3h4a4.671,4.671,0,0,0,.3,1.7,2.445,2.445,0,0,0,.9,1.1,3.1,3.1,0,0,0,1.3.6,9.852,9.852,0,0,0,1.7.2,7.719,7.719,0,0,0,1.5-.2,3.7,3.7,0,0,0,1.1-.5,2.7,2.7,0,0,0,.7-.8,1.8,1.8,0,0,0,.2-1A4.87,4.87,0,0,0,116.4,20.8Z" fill="#5b6776"/><path d="M123.2,16.1a6.142,6.142,0,0,1,1.5-2.6,6.576,6.576,0,0,1,2.3-1.7,8.832,8.832,0,0,1,6.4,0,8.068,8.068,0,0,1,2.4,1.7,13.5,13.5,0,0,1,1.5,2.6,12.573,12.573,0,0,1,.5,3.3v.3a12.573,12.573,0,0,1-.5,3.3,7.2,7.2,0,0,1-1.5,2.7,6.576,6.576,0,0,1-2.3,1.7,8.832,8.832,0,0,1-6.4,0,8.068,8.068,0,0,1-2.4-1.7,11.74,11.74,0,0,1-1.5-2.7,12.573,12.573,0,0,1-.5-3.3v-.3A12.574,12.574,0,0,1,123.2,16.1Zm3.8,5.4a3.387,3.387,0,0,0,.6,1.5,2.66,2.66,0,0,0,1.1,1,4.193,4.193,0,0,0,1.6.4,2.822,2.822,0,0,0,1.5-.4,5.242,5.242,0,0,0,1.1-1,4.715,4.715,0,0,0,.6-1.5,13.551,13.551,0,0,0,.2-2v-.3a11.02,11.02,0,0,0-.2-1.8,3.946,3.946,0,0,0-.6-1.5,2.66,2.66,0,0,0-1.1-1,4.193,4.193,0,0,0-1.6-.4,2.934,2.934,0,0,0-1.6.4,3.94,3.94,0,0,0-1.7,2.5,11.019,11.019,0,0,0-.2,1.8v.3A6.929,6.929,0,0,0,127,21.5Z" fill="#5b6776"/><path d="M150.9,25.3a5.752,5.752,0,0,1-1.9,1.9,4.3,4.3,0,0,1-2.5.7,5.347,5.347,0,0,1-4.1-1.6,4.189,4.189,0,0,1-1.1-2.2,16.476,16.476,0,0,1-.4-3.2V11.3H145V21a8.6,8.6,0,0,0,.1,1.6,3.583,3.583,0,0,0,.4,1.1,1.555,1.555,0,0,0,.8.6,5.019,5.019,0,0,0,1.2.2,4.869,4.869,0,0,0,1.2-.1,1.8,1.8,0,0,0,.9-.4,2.652,2.652,0,0,0,.6-.5c.2-.2.3-.5.5-.7V11.4h4.1V27.5h-3.7Z" fill="#5b6776"/><path d="M168.5,22.5a1.024,1.024,0,0,0-.6-.5,2.843,2.843,0,0,0-1.2-.4c-.5-.1-1.1-.3-1.8-.4a23.347,23.347,0,0,1-2.5-.7,7.5,7.5,0,0,1-2-1,5.706,5.706,0,0,1-1.3-1.4,4.075,4.075,0,0,1-.5-1.8,4.136,4.136,0,0,1,.5-1.9,6.991,6.991,0,0,1,1.3-1.7,5.291,5.291,0,0,1,2.1-1.1,8.627,8.627,0,0,1,2.8-.4,10.323,10.323,0,0,1,3,.4,6.5,6.5,0,0,1,2.2,1.1,5.391,5.391,0,0,1,1.4,1.6,4.552,4.552,0,0,1,.5,2h-4.1a1.7,1.7,0,0,0-.1-.7,2.092,2.092,0,0,0-.4-.6,8.8,8.8,0,0,0-1-.6,2.622,2.622,0,0,0-1.5-.2,5.7,5.7,0,0,0-1.3.1,3.552,3.552,0,0,0-.9.4c-.2.2-.4.3-.5.5a1.854,1.854,0,0,0-.2.7,1.7,1.7,0,0,0,.1.7,1.205,1.205,0,0,0,.5.5,1.777,1.777,0,0,0,1,.4c.4.1,1,.2,1.6.3,1,.2,1.8.4,2.7.6a9.494,9.494,0,0,1,2.1.9,6.2,6.2,0,0,1,1.4,1.4,4.552,4.552,0,0,1,.5,2,4.136,4.136,0,0,1-.5,1.9,4.009,4.009,0,0,1-1.4,1.5,6.715,6.715,0,0,1-2.3,1,13.523,13.523,0,0,1-2.9.4A11.851,11.851,0,0,1,162,27a7.242,7.242,0,0,1-2.3-1.2,4.573,4.573,0,0,1-1.4-1.7,4.486,4.486,0,0,1-.5-1.9h3.9a1.5,1.5,0,0,0,.4,1.1,1.779,1.779,0,0,0,.8.7,3.582,3.582,0,0,0,1.1.4,5.7,5.7,0,0,0,1.3.1,6.6,6.6,0,0,0,1.4-.1,3,3,0,0,0,1-.4c.2-.2.4-.3.5-.5a1.854,1.854,0,0,0,.2-.7C168.4,22.5,168.6,22.6,168.5,22.5Z" fill="#5b6776"/><path d="M185.6,26.9c-.1-.3-.1-.5-.2-.8a2.7,2.7,0,0,1-.8.7c-.3.2-.7.4-1,.6a5.638,5.638,0,0,1-1.2.4,6.6,6.6,0,0,1-1.4.1,5.381,5.381,0,0,1-2.2-.4,16.179,16.179,0,0,1-1.8-1,3.269,3.269,0,0,1-1.1-1.5,6.456,6.456,0,0,1-.4-1.9,5.932,5.932,0,0,1,.5-2.3,4.978,4.978,0,0,1,1.5-1.7,6.5,6.5,0,0,1,2.3-.9,15.526,15.526,0,0,1,3.1-.3h2.2V17a3.553,3.553,0,0,0-.2-1,2.177,2.177,0,0,0-.5-.8,2.622,2.622,0,0,0-.9-.5,5.852,5.852,0,0,0-1.3-.2,4.253,4.253,0,0,0-1.1.2,2.01,2.01,0,0,0-.8.4,2.092,2.092,0,0,0-.4.6,2.2,2.2,0,0,0-.1.8h-4.1a4.058,4.058,0,0,1,.4-1.9,4.013,4.013,0,0,1,1.3-1.6,5.291,5.291,0,0,1,2.1-1.1,8.627,8.627,0,0,1,2.8-.4,8.423,8.423,0,0,1,2.7.4,10.013,10.013,0,0,1,2.1,1,3.907,3.907,0,0,1,1.4,1.7A6.874,6.874,0,0,1,189,17v6.8a14.92,14.92,0,0,0,.2,2.1,5.783,5.783,0,0,0,.5,1.4v.2h-4.1C185.8,27.3,185.7,27.1,185.6,26.9Zm-2.4-2.4a3,3,0,0,0,1-.4,3.039,3.039,0,0,0,.7-.5,2.652,2.652,0,0,0,.5-.6V20.3h-2.1a8.752,8.752,0,0,0-1.6.2,3.7,3.7,0,0,0-1.1.5,1.555,1.555,0,0,0-.6.8,3.553,3.553,0,0,0-.2,1,1.884,1.884,0,0,0,.2.8c.1.3.3.4.4.6a1.612,1.612,0,0,0,.7.4,3.4,3.4,0,0,0,1,.1C182.5,24.6,182.8,24.6,183.2,24.5Z" fill="#5b6776"/><path d="M194.6,29.4l8-23.7h3.8l-8,23.7Z" fill="#33ffa8"/><path d="M211.4,21.4l8.3-2.9.9-.3-.9-.3-8.3-2.8v-4l13.1,5.5V20l-13.1,5.5Z" fill="#33ffa8"/></g></svg>