<svg width="200" height="66" viewBox="0 0 200 66" fill="none" xmlns="http://www.w3.org/2000/svg">
<g clip-path="url(#clip0)">
<path d="M0 39.3097V29.8975L35.5862 14.6719V26.0219L13.5172 33.4963L10.7586 34.6036L13.5172 35.7109L35.5862 43.4621V54.8121L0 39.3097Z" fill="#33FFA8"/>
<path d="M59.3103 34.05V50.9365H87.1724V60.3487H48V0.276828H87.1724V9.96584H59.3103V25.1914H83.3103V34.6036L59.3103 34.05Z" fill="white"/>
<path d="M119.172 41.8012C118.689 40.8573 118.034 40.0124 117.241 39.3097C116.145 38.4213 114.94 37.6771 113.655 37.0951C111.972 36.2863 110.217 35.6375 108.414 35.1573C105.463 34.3306 102.599 33.2181 99.8621 31.8353C97.679 30.7029 95.6411 29.3085 93.7931 27.6829C92.2151 26.3361 90.9848 24.6266 90.2069 22.7C89.4434 20.7625 89.0684 18.6929 89.1035 16.6097C89.0513 14.2862 89.623 11.9914 90.7586 9.96584C91.7553 7.86126 93.2754 6.04981 95.1724 4.70609C97.2015 3.27301 99.4332 2.15325 101.793 1.38414C104.484 0.615147 107.271 0.242153 110.069 0.276829C112.97 0.333667 115.849 0.799611 118.621 1.66097C121.044 2.40758 123.294 3.63096 125.241 5.25975C127.096 6.87143 128.599 8.85069 129.655 11.0732C130.75 13.313 131.317 15.7758 131.31 18.2707H120.276C120.294 17.0216 120.01 15.7867 119.448 14.6719C118.973 13.6419 118.319 12.7047 117.517 11.9036C116.615 11.0998 115.591 10.4456 114.483 9.96584C113.062 9.49348 111.562 9.30538 110.069 9.41219C108.675 9.45665 107.288 9.64214 105.931 9.96584C104.865 10.1634 103.84 10.5376 102.897 11.0732C102.104 11.7758 101.449 12.6208 100.966 13.5646C100.497 14.5064 100.306 15.5627 100.414 16.6097C100.389 17.6839 100.677 18.7419 101.241 19.6549C101.777 20.7345 102.648 21.6093 103.724 22.1463C104.859 23.062 106.176 23.7228 107.586 24.0841L112.552 25.7451C114.483 26.2988 116.414 27.1292 118.345 27.6829C120.212 28.155 121.924 29.1094 123.31 30.4512C125.572 32.164 127.451 34.3328 128.828 36.8183C130.181 39.3707 130.846 42.2334 130.759 45.1231C130.809 47.5344 130.239 49.918 129.103 52.0438C128.087 54.0606 126.566 55.7777 124.69 57.0268C122.661 58.4599 120.429 59.5796 118.069 60.3487C115.378 61.1177 112.591 61.4907 109.793 61.456C106.802 61.3971 103.832 60.9315 100.966 60.0719C98.2726 59.2354 95.7502 57.9229 93.5173 56.1963C91.5812 54.5938 89.9863 52.6168 88.8276 50.3829C87.73 47.7529 87.1673 44.9293 87.1724 42.078H98.2069C98.1902 43.6846 98.4708 45.2803 99.0345 46.7841C99.5397 48.0256 100.405 49.0864 101.517 49.8292C102.57 50.6509 103.797 51.2192 105.103 51.4902C106.647 51.8125 108.217 51.9978 109.793 52.0438C111.187 51.9994 112.574 51.8139 113.931 51.4902C115.01 51.1955 116.035 50.7281 116.966 50.106C117.743 49.4969 118.398 48.7454 118.897 47.8914C119.34 47.0403 119.531 46.0798 119.448 45.1231C119.495 44.0086 119.402 42.8926 119.172 41.8012V41.8012Z" fill="#5B6776"/>
<path d="M131.31 65.6085L153.379 0H163.862L141.793 65.6085H131.31Z" fill="#33FFA8"/>
<path d="M163.862 43.4622L186.759 35.4341L189.241 34.6036L186.759 33.7731L163.862 26.0219V14.9488L200 30.1744V39.5865L163.862 54.8121V43.4622Z" fill="#33FFA8"/>
</g>
<defs>
<clipPath id="clip0">
<rect width="200" height="65.6085" fill="white"/>
</clipPath>
</defs>
</svg>
